<svg
  viewBox="0 0 1024 1024"
>
  <path
    d="M714.809996 302.124014l-78.029998-78.011998c-14.344-14.36-37.655999-14.36-51.997999 0l-65.935999 65.935998-65.919999-65.935998c-14.376-14.36-37.655999-14.36-52.013999 0l-65.933999 65.935998-65.935998-65.935998c-14.36-14.36-37.639999-14.36-51.999999 0l-78.011999 78.011998c-14.36 14.358-14.36 37.639999 0 52.013999l78.011999 77.997999c14.36 14.374 37.639999 14.374 51.999999 0l65.935998-65.935999 65.933999 65.935999c14.36 14.374 37.639999 14.374 52.013999 0l65.919999-65.935999 65.935999 65.935999c14.342 14.374 37.653999 14.374 51.997999 0l78.029998-77.997999c14.342-14.374 14.342-37.655999 0-52.013999zM328.822004 36.290019c-4.656-15.876-13.61-27.093999-14.782-28.499999l-0.016-0.016a0.034 0.034 0 0 0-0.032-0.032 21.272 21.272 0 0 0-16.42-7.734c-11.782 0-21.328 9.562-21.327999 21.344 0 5.14 1.812 9.876 4.86 13.561999l-0.078-0.094c0.046 0.062 4.984 6.312 7.093999 14.358 2.172 8.296 0.484 14.452-5.656 20.624-17.296 17.36-23.03 40.077999-16.169999 63.997998 4.64 16.204 13.656 27.671999 14.67 28.938v-0.016c3.922 4.844 9.89 7.952 16.609999 7.952 11.78 0 21.328-9.546 21.328-21.328 0-5.078-1.766-9.718-4.734-13.39h0.016c-0.046-0.062-4.656-6.172-6.876-13.921999-2.61-9.092-1-15.718 5.376-22.124 17.326-17.388 23.06-39.981999 16.138-63.619999z m-47.701999-1.36l0.032 0.032-0.032-0.032zM457.318001 36.290019c-4.64-15.876-13.61-27.093999-14.782-28.499999v-0.016l-0.032-0.032a21.33 21.33 0 0 0-37.763999 13.61c0 5.14 1.828 9.876 4.86 13.561999l-0.062-0.094c0.046 0.062 4.984 6.312 7.094 14.358 2.172 8.296 0.468 14.452-5.672 20.624-17.28 17.36-23.03 40.077999-16.156 63.997998 4.64 16.204 13.656 27.671999 14.656 28.938l0.016-0.016a21.276 21.276 0 0 0 16.594 7.952c11.78 0 21.342-9.546 21.341999-21.328a21.28 21.28 0 0 0-4.734-13.39c-0.046-0.062-4.656-6.172-6.876-13.921999-2.61-9.092-1-15.718 5.39-22.124 17.314-17.388 23.048-39.981999 16.126-63.619999z m-47.701999-1.36c0.016 0 0.032 0.016 0.032 0.032l-0.032-0.032zM571.189999 135.958017c-0.062-0.062-4.656-6.172-6.876-13.921999-2.624-9.092-1-15.718 5.376-22.124 17.312-17.39 23.06-39.983999 16.124-63.623999-4.656-15.876-13.624-27.093999-14.782-28.499999v-0.014c0-0.016-0.032-0.032-0.032-0.032a21.28 21.28 0 0 0-16.436-7.734c-11.766 0-21.312 9.562-21.311999 21.344 0 5.14 1.812 9.876 4.859999 13.561999l-0.078-0.094c0.046 0.062 4.984 6.312 7.094 14.358 2.156 8.296 0.468 14.452-5.656 20.624-17.296 17.36-23.032 40.077999-16.171999 63.997998 4.64 16.204 13.656 27.671999 14.671999 28.938v-0.016c3.922 4.844 9.876 7.952 16.594 7.952 11.78 0 21.342-9.546 21.342-21.328a21.2 21.2 0 0 0-4.75-13.39h0.032z m-33.062-101.027998l0.032 0.032-0.032-0.032z"
    fill="#E6E9ED"
    p-id="2480"
  ></path>
  <path
    d="M896.209992 384.012012h-170.277996c-23.56 0-42.683999 19.094-42.683999 42.656v79.715998c2.782-20.904 20.654-37.043999 42.307999-37.043999h85.311998c23.56 0 42.683999 19.092 42.683999 42.669999v170.619997c0 23.562-19.124 42.687999-42.683999 42.687999h-85.311998c-21.654 0-39.527999-16.124-42.307999-37.061999V768.000005c0 23.562 19.124 42.623999 42.683999 42.623999h170.277996c23.562 0 42.655999-19.062 42.656-42.623999V426.666012c0.002-23.56-19.092-42.653999-42.656-42.654z"
    fill="#E9573F"
    p-id="2481"
  ></path>
  <path
    d="M732.307996 298.670014H119.828008S-0.62199 661.316007 207.326006 1023.992h437.485991c207.929996-362.675993 87.495998-725.321986 87.495999-725.321986z"
    fill="#FC6E51"
    p-id="2482"
  ></path>
  <path
    d="M155.000007 347.592013c-8.328 8.328-8.328 21.828 0 30.17 8.328 8.328 21.842 8.328 30.169999 0 8.328-8.342 8.328-21.842 0-30.17s-21.842-8.328-30.169999 0zM197.670006 390.246012c-8.328 8.344-8.328 21.844 0 30.172s21.828 8.328 30.17 0c8.328-8.328 8.328-21.828 0-30.172-8.342-8.328-21.842-8.328-30.17 0zM240.324005 347.592013c-8.328 8.328-8.328 21.828 0 30.17 8.328 8.328 21.844 8.328 30.172 0 8.328-8.342 8.328-21.842 0-30.17-8.328-8.328-21.844-8.328-30.172 0zM624.311998 390.246012c-8.344 8.344-8.344 21.844 0 30.172 8.312 8.328 21.844 8.328 30.155999 0 8.344-8.328 8.344-21.828 0-30.172-8.312-8.328-21.844-8.328-30.155999 0zM697.153996 347.592013a21.36 21.36 0 0 0-30.185999 0c-8.312 8.328-8.312 21.828 0 30.17a21.36 21.36 0 0 0 30.185999 0c8.312-8.344 8.312-21.842 0-30.17zM282.996004 390.246012c-8.328 8.344-8.328 21.844 0 30.172s21.842 8.328 30.17 0c8.328-8.328 8.328-21.828 0-30.172-8.328-8.328-21.842-8.328-30.17 0zM325.666004 347.592013c-8.328 8.328-8.328 21.828 0 30.17 8.328 8.328 21.828 8.328 30.169999 0 8.328-8.342 8.328-21.842 0-30.17-8.342-8.328-21.842-8.328-30.169999 0zM368.320003 390.246012c-8.328 8.344-8.328 21.844 0 30.172s21.844 8.328 30.171999 0 8.328-21.828 0-30.172c-8.328-8.328-21.844-8.328-30.171999 0zM410.992002 347.592013c-8.328 8.328-8.328 21.828 0 30.17 8.328 8.328 21.842 8.328 30.169999 0 8.328-8.342 8.328-21.842 0-30.17s-21.842-8.328-30.169999 0zM453.662001 390.246012c-8.344 8.344-8.344 21.844 0 30.172 8.328 8.328 21.826 8.328 30.154 0 8.344-8.328 8.344-21.828 0-30.172-8.328-8.328-21.826-8.328-30.154 0zM496.316 347.592013c-8.328 8.328-8.328 21.828 0 30.17 8.328 8.328 21.844 8.328 30.172 0 8.328-8.342 8.328-21.842 0-30.17s-21.844-8.328-30.172 0zM538.987999 390.246012c-8.328 8.344-8.328 21.844 0 30.172s21.826 8.328 30.17 0c8.312-8.328 8.312-21.828 0-30.172-8.344-8.328-21.842-8.328-30.17 0zM611.811998 347.592013c-8.344-8.328-21.842-8.328-30.153999 0-8.344 8.328-8.344 21.828 0 30.17 8.312 8.328 21.81 8.328 30.153999 0 8.344-8.344 8.344-21.842 0-30.17z"
    fill="#E9573F"
    p-id="2483"
  ></path>
  <path
    d="M241.152005 1008.868a21.368 21.368 0 0 0-6.25 15.124h42.67c0-5.5-2.078-10.938-6.25-15.124-8.326-8.312-21.842-8.312-30.17 0zM326.478004 1008.868a21.35 21.35 0 0 0-6.234 15.124h42.655999c0-5.5-2.078-10.938-6.25-15.124-8.328-8.312-21.828-8.312-30.171999 0zM411.820002 1008.868a21.3 21.3 0 0 0-6.25 15.124h42.655999c0-5.5-2.078-10.938-6.234-15.124-8.346-8.312-21.844-8.312-30.171999 0zM497.144 1008.868a21.3 21.3 0 0 0-6.25 15.124h42.672c0-5.5-2.078-10.938-6.25-15.124-8.328-8.312-21.844-8.312-30.172 0zM612.623998 1008.868c-8.312-8.31-21.81-8.31-30.153999 0a21.368 21.368 0 0 0-6.25 15.124h42.653999a21.22 21.22 0 0 0-6.25-15.124z"
    fill="#E9573F"
    p-id="2484"
  />
</svg>